<?xml version="1.0" encoding="UTF-8" standalone="no"?>
<!-- Generator: Adobe Illustrator 23.0.1, SVG Export Plug-In . SVG Version: 6.00 Build 0)  -->

<svg
   version="1.1"
   id="Layer_1"
   x="0px"
   y="0px"
   width="526.37"
   height="526.37"
   viewBox="0 0 526.37 526.37"
   enable-background="new 0 0 469.486 526.37"
   xml:space="preserve"
   sodipodi:docname="Enilive.svg"
   inkscape:version="1.4.3 (0d15f75, 2025-12-25)"
   xmlns:inkscape="http://www.inkscape.org/namespaces/inkscape"
   xmlns:sodipodi="http://sodipodi.sourceforge.net/DTD/sodipodi-0.dtd"
   xmlns:xlink="http://www.w3.org/1999/xlink"
   xmlns="http://www.w3.org/2000/svg"
   xmlns:svg="http://www.w3.org/2000/svg"><defs
   id="defs29" /><sodipodi:namedview
   id="namedview29"
   pagecolor="#ffffff"
   bordercolor="#000000"
   borderopacity="0.25"
   inkscape:showpageshadow="2"
   inkscape:pageopacity="0.0"
   inkscape:pagecheckerboard="0"
   inkscape:deskcolor="#d1d1d1"
   inkscape:zoom="3.4025496"
   inkscape:cx="234.67696"
   inkscape:cy="263.185"
   inkscape:window-width="3840"
   inkscape:window-height="2030"
   inkscape:window-x="2869"
   inkscape:window-y="-11"
   inkscape:window-maximized="1"
   inkscape:current-layer="Layer_1" />
<g
   id="g29"
   transform="translate(26)">
	<g
   id="g6">
		<g
   id="g2">
			<rect
   x="248.246"
   y="438.07999"
   fill="#008582"
   width="14.74"
   height="87.470001"
   id="rect1" />
			<path
   fill="#008582"
   d="m 282.606,462.6 h 14.74 v 62.95 h -14.74 z m 7.43,-28.06 c -2.67,0 -4.91,0.85 -6.72,2.53 -1.81,1.69 -2.71,3.79 -2.71,6.31 0,2.52 0.9,4.62 2.71,6.31 1.81,1.69 4.05,2.54 6.72,2.54 2.75,0 5.01,-0.88 6.78,-2.65 1.77,-1.77 2.65,-3.95 2.65,-6.54 0,-2.43 -0.9,-4.46 -2.71,-6.07 -1.81,-1.62 -4.05,-2.43 -6.72,-2.43"
   id="path1" />
			<polygon
   fill="#008582"
   points="375.616,462.6 361.466,462.6 341.306,509.28 321.736,462.6 306.416,462.6 333.406,525.55 348.616,525.55 "
   id="polygon1" />
			<path
   fill="#008582"
   d="m 442.216,494.43 c 0,-6.44 -1.36,-12.12 -4.07,-17.04 -2.71,-4.91 -6.48,-8.72 -11.32,-11.43 -4.83,-2.71 -10.31,-4.07 -16.44,-4.07 -6.21,0 -11.79,1.37 -16.74,4.13 -4.95,2.75 -8.82,6.58 -11.61,11.49 -2.79,4.91 -4.19,10.43 -4.19,16.56 0,6.21 1.43,11.77 4.3,16.68 2.87,4.91 6.94,8.74 12.2,11.49 5.26,2.75 11.35,4.13 18.27,4.13 5.42,0 10.3,-0.86 14.62,-2.59 4.32,-1.73 7.9,-4.28 10.73,-7.66 l -7.9,-9.08 c -4.48,4.56 -10.18,6.84 -17.1,6.84 -5.42,0 -9.96,-1.35 -13.61,-4.07 -3.65,-2.71 -5.91,-6.38 -6.78,-11.02 h 49.39 c 0.17,-1.88 0.25,-3.34 0.25,-4.36 m -49.75,-5.42 c 0.71,-4.64 2.69,-8.35 5.95,-11.14 3.26,-2.79 7.25,-4.19 11.96,-4.19 4.79,0 8.8,1.41 12.02,4.24 3.22,2.83 5.15,6.52 5.78,11.08 h -35.71 z"
   id="path2" />
		</g>
		<g
   id="g5">
			<defs
   id="defs2">
				<path
   id="SVGID_1_"
   d="m 213.736,525.55 h 14.67 v -62.68 h -14.67 z M 75.646,478.08 c 3.25,-2.78 7.22,-4.17 11.92,-4.17 4.77,0 8.76,1.41 11.97,4.23 3.21,2.82 5.13,6.5 5.75,11.03 h -35.57 c 0.71,-4.62 2.68,-8.32 5.93,-11.09 m -4.75,-11.8 c -4.93,2.74 -8.78,6.56 -11.56,11.44 -2.78,4.89 -4.17,10.39 -4.17,16.49 0,6.18 1.42,11.72 4.28,16.61 2.86,4.89 6.91,8.71 12.15,11.44 5.24,2.74 11.3,4.11 18.19,4.11 5.4,0 10.25,-0.86 14.55,-2.58 4.3,-1.72 7.87,-4.26 10.68,-7.63 l -7.86,-9.04 c -4.46,4.54 -10.13,6.81 -17.02,6.81 -5.4,0 -9.92,-1.35 -13.56,-4.05 -3.64,-2.7 -5.89,-6.36 -6.75,-10.97 h 49.18 c 0.16,-1.88 0.24,-3.33 0.24,-4.34 0,-6.41 -1.35,-12.07 -4.05,-16.96 -2.7,-4.89 -6.45,-8.68 -11.26,-11.39 -4.81,-2.7 -10.27,-4.05 -16.37,-4.05 -6.19,0 -11.74,1.37 -16.67,4.11 m 85.56,-1.88 c -3.68,1.49 -6.73,3.68 -9.15,6.57 v -8.1 h -13.97 v 62.68 h 14.67 v -31.69 c 0,-6.1 1.56,-10.77 4.69,-14.02 3.13,-3.25 7.39,-4.87 12.79,-4.87 4.77,0 8.45,1.39 11.03,4.17 2.58,2.78 3.87,6.91 3.87,12.38 v 34.04 h 14.67 v -35.91 c 0,-9.08 -2.39,-15.92 -7.16,-20.54 -4.77,-4.62 -11.11,-6.92 -19.01,-6.92 -4.61,-0.02 -8.75,0.73 -12.43,2.21 m 57.98,-26.94 c -1.8,1.68 -2.7,3.78 -2.7,6.28 0,2.5 0.9,4.6 2.7,6.28 1.8,1.68 4.03,2.52 6.69,2.52 2.74,0 4.99,-0.88 6.75,-2.64 1.76,-1.76 2.64,-3.93 2.64,-6.52 0,-2.42 -0.9,-4.44 -2.7,-6.04 -1.8,-1.6 -4.03,-2.41 -6.69,-2.41 -2.66,0.01 -4.89,0.85 -6.69,2.53" />
			</defs>
			<clipPath
   id="SVGID_2_">
				<use
   xlink:href="#SVGID_1_"
   overflow="visible"
   id="use2" />
			</clipPath>
			
				<radialGradient
   id="SVGID_3_"
   cx="-11.021"
   cy="230.5901"
   r="2.3141"
   gradientTransform="matrix(-73.8892,21.3015,-21.3015,-73.8892,4325.7617,17736.623)"
   gradientUnits="userSpaceOnUse">
				<stop
   offset="0"
   style="stop-color:#6DC7E7"
   id="stop2" />
				<stop
   offset="0.2454"
   style="stop-color:#0DB4E6"
   id="stop3" />
				<stop
   offset="0.718"
   style="stop-color:#0892C1"
   id="stop4" />
				<stop
   offset="1"
   style="stop-color:#007BA9"
   id="stop5" />
			</radialGradient>
			<polygon
   clip-path="url(#SVGID_2_)"
   fill="url(#SVGID_3_)"
   points="217.066,388.27 254.856,519.36 68.626,573.05 30.836,441.96 "
   id="polygon5"
   style="fill:url(#SVGID_3_)" />
		</g>
	</g>
	<g
   id="g28">
		<g
   id="g12">
			<defs
   id="defs6">
				<path
   id="SVGID_4_"
   d="m 236.576,283.22 v 0 m -0.09,0.2 v 0 0 m 0.04,-0.08 c -0.02,0.03 -0.03,0.06 -0.04,0.07 0.01,-0.01 0.02,-0.04 0.04,-0.07 m 0,-0.01 v 0 0 m 0.03,-0.05 c 0,0.01 -0.01,0.02 -0.02,0.03 0.01,-0.01 0.01,-0.03 0.02,-0.03 m 0.01,-0.03 v 0 0 m 60.57,-137.43 c 0.48,-0.49 0.79,-0.78 0.79,-0.78 14.11,-14.96 21.96,-35.63 28.78,-47.1 4.17,-7.01 7.42,-14.64 18.07,-17.61 15.02,-4.18 28.43,8.57 27.68,22.88 -0.61,11.81 -9.09,20.06 -21.8,20.78 -12.59,0.71 -16.03,0.06 -16.03,0.06 -6.25,8.49 -10.51,11.66 -16.21,15.24 -6.4,4.02 -14.38,7.61 -21.11,7.61 -0.76,-0.04 -0.59,-0.65 -0.17,-1.08 m 21.32,-62.52 c -5.25,9.41 -8.2,19.61 -11.95,28.83 -1.85,4.55 -9.84,24.15 -19.4,27.83 -2.58,1.68 -10.69,2.07 -15.75,-3.66 -2.43,-3.1 -5.39,-8.13 -3.57,-12.48 h 0.56 c 1.87,1.25 2.78,4.57 5.03,6.28 2.47,1.87 6.7,1.93 9.12,0.58 3.32,-1.86 4.19,-5.57 4.19,-9.31 0,-4.55 -1.89,-7.41 -4.99,-10.16 -3.46,-2.95 -10.38,-3.04 -14.59,-1.25 -8.91,3.78 -8.97,13.39 -9.17,17.1 0.59,6.26 3.74,15.32 12.02,19.83 1.7,0.92 -4.45,8.14 -13.49,9.15 -2.81,0.34 -4.66,0 -7.31,-1.79 -2.18,-1.85 -3.64,-2.88 -4.7,-5.07 -0.71,-1.47 -4.33,1.9 -5.35,6.62 -0.42,1.95 -3.89,1.59 -6.8,-0.15 -3.45,-2.06 -4.79,-6.57 -5.71,-6.72 -0.92,-0.16 -3.46,2.84 -4.49,5.39 -1.61,3.98 -3.6,5.97 -6.27,4.64 -2.01,-1 -3.44,-2.63 -4.5,-4.33 -1.42,-2.42 -2.04,-5 -3,-6.43 -0.21,-0.38 -0.4,-0.63 -0.61,-0.7 -1.1,-0.89 -4.91,3.02 -6.12,4.38 -1.51,1.7 -4.45,4.4 -7.94,4.04 -4.04,-0.41 -4.35,-6.86 -7.66,-13.66 -0.16,-0.89 -1.4,-1.36 -2.13,-0.84 -6.26,4.54 -8.31,5.83 -11.94,7.24 -4.07,1.59 -4.58,-1.77 -4.58,-1.77 -0.77,-5.67 -3.8,-13.18 -6.77,-13.74 -2.82,-0.1 -8.23,8.32 -15.49,10.2 -2.46,0.63 -2.5,-3.96 -2.51,-4.01 -0.33,-4.52 -3.86,-11.63 -7.56,-12.04 -1.97,-0.21 -1.43,4.11 -13.72,9.47 -5.41,2.37 -13.23,2.04 -17.82,0.73 -0.97,5.81 -3.85,17.16 -5.97,17.56 0,0 -18.54,-7.08 -23.46,-6.45 -6.35,3.06 -16.75,16.22 -16.75,16.22 -3.07,0.15 -5.61,-1.73 -7.65,-3.62 -2.39,-2.21 -4.08,-4.43 -5.09,-3.34 -2.41,2.58 -9.4,31.24 -5.9,49.97 9.17,48.99 25.43,85.15 34.65,141.16 3.43,20.84 -17.74,34.69 -27.02,51.57 0,0 -1.23,2.18 1.67,2.19 8.78,0.06 16.43,0.44 26.54,0.05 2.76,-0.12 6.9,-3.14 7.69,-6.62 2.38,-10.39 4.39,-22.8 8.06,-33.39 1.3,-4.91 8.98,-12.64 19.37,-19.34 0.53,-0.34 -5.99,-4.16 -3.98,-8.43 1.87,-3.98 5.48,-5.24 7.72,-12.17 -8.77,-2.71 -5.11,-8.39 -5.11,-8.39 0.63,-1.53 2.86,-4.31 6.96,-9.8 -4.92,-4.39 -6.19,-2.34 -7.71,-4.32 -1.68,-2.2 -0.82,-5.53 3.01,-10.26 2.58,-3.18 8.41,-9.67 3.19,-9.85 -6.92,-0.24 -12.45,-3.89 -11.46,-11.74 l -0.08,-15.8 c 0,-1.74 1.85,-0.63 1.85,-0.63 7.88,4.01 16.42,5.76 24.12,7.03 0,0 1.03,0.18 0.92,1.56 -0.53,7.29 2.36,21 4.06,28.43 1.56,6.8 5.39,17.39 4.17,28.78 -0.85,7.95 -6.83,10.74 -10.9,14.45 -2.55,2.33 -9.78,5.4 -9.12,8.62 0,0 0.23,1.11 1.78,2.36 0,0 13.81,12.76 19.54,16.78 2.8,1.97 6.42,-15.96 9.64,-22.6 1.39,-2.88 4.48,-5.62 6.07,-6.44 4.69,-2.43 7.22,-8.67 7.22,-8.67 l 0.06,-0.93 c -3.96,0.07 -3.79,-2.67 -2.85,-3.86 0.94,-1.19 3.42,-3.03 5.4,-4.64 4.71,-3.83 6.63,-8.12 6.63,-8.13 l -0.07,-0.56 c -5.16,0.81 -5.54,-2.63 -5.43,-3.55 0.11,-0.93 0.75,-2.26 3.05,-4.19 1.84,-1.55 6.94,-4.05 8.49,-10.06 0.04,-0.15 -0.28,-0.11 -0.84,-0.07 -1.65,0.12 -5.42,0.23 -8.8,-4.27 -2.65,-3.53 0.14,-13.06 2.05,-17.46 1.51,-3.47 1.98,-4.24 3.78,-4.11 5.8,0.46 11.45,-0.9 18.78,-2.11 0,0 5.35,-1.12 4.4,3.78 -3.6,15.8 -8.61,34.32 -11.16,50.62 0,0 -0.52,2.93 -1.68,4.25 -5.28,6.1 -10.81,9.43 -16.71,13.04 -4.33,2.65 -8.46,3.97 -10.52,8.41 0,0 -1.03,2.33 0.83,3.86 l 20.9,17.56 c 1.08,0.91 1.74,-0.16 1.74,-0.16 4.26,-5.36 8.15,-13.39 10.61,-19.66 1.59,-4.05 0.81,-6.34 3.23,-8.86 0,0 2,-1.6 4.87,-2.5 3.41,-1.07 4.1,-1.53 6.32,-4.08 1.64,-1.88 0.94,-0.87 -1.33,-5.16 -0.86,-1.63 3.59,-3.26 3.59,-3.26 2.61,-1.34 4.87,-0.69 8.81,-4.95 -4.92,0 -4.71,-2.55 -3.19,-3.79 4.32,-3.54 9.27,-1.92 14.18,-8.75 v -0.33 c -1.03,0 -3.53,-0.88 -4.28,-2.4 -0.72,-2 4.56,-6.13 9.91,-7.86 4.57,-1.48 4.3,-4.98 4.3,-4.98 0,0.01 -0.01,0.01 -0.01,0.02 0,-0.01 0.01,-0.02 0.01,-0.02 -2.79,-0.08 -6.77,-11.17 -5.6,-14.37 -0.97,-7.01 12.52,-8.86 17.45,-9.48 0,0 1.63,8.36 3.51,14.63 4.73,15.83 19.31,35.46 19.31,35.46 0.78,1.03 2.5,2.67 0.69,5.11 l -22.84,27.9 c -1.15,1.36 -1.36,3.76 0.61,3.76 l 33.2,-1.23 c 2.34,-0.31 4.24,-1.63 4.44,-3.1 0.87,-6.5 -2.83,-19.44 2.53,-28.4 2.14,-3.57 3.27,-6.18 4.81,-10.27 0,0 -6.62,1.15 -1.8,-4.89 1.71,-2.14 3.17,-4.52 4.15,-7.66 0,0 -2.79,-1.72 -5.19,-4 -0.95,-0.91 0.42,-1.48 0.42,-1.48 2.46,-2.24 3.74,-4.42 4.44,-8.97 -7.49,0.14 -9.06,-3.34 -9.7,-5.52 -0.39,-1.33 0.26,-8.74 1.8,-11.59 1.67,-3.1 5.28,-8.08 9.55,-12.45 1.74,-1.63 3.77,-2.47 4.31,-0.52 1.43,5.15 5.5,23.56 11.33,28.58 0,0 10.43,9.99 17.32,18.64 3.89,4.89 9.89,11.12 8.67,17.97 l -1,1.61 -19.48,29.43 c 0,0 -1.15,1.69 -0.34,2.82 0.76,1.04 1.84,1.17 2.57,0.99 l 31.76,-7.92 c 0,0 1.04,-0.19 1.54,-0.77 0.33,-0.39 0.33,-1.07 0.33,-1.07 l -1.3,-21.51 c -0.09,-3.62 6.44,-8.69 7.94,-10.64 0.3,-0.39 0.19,-0.73 -0.23,-0.99 -1.49,-0.92 -2.84,-4.32 -1.81,-5.28 4.36,-4.08 6.55,-8.17 5.19,-7.92 -2.46,0.47 -5.44,0.37 -6.33,-1.9 -0.46,-1.1 0.7,-1.81 0.7,-1.81 5.6,-4.77 3.82,-7.62 3.82,-7.62 0,0 -11.79,-1.16 -17.58,-9.72 -1.93,-2.85 -1.33,-19.38 -1.3,-23.96 0,0 -0.05,-1.63 1.23,-1.25 17.81,11.43 32.93,15.35 56.88,19.75 0,0 2.51,-0.47 8.14,9.46 9.88,17.42 19.63,33.34 30.22,50.5 2.48,4.02 4.2,7.69 5.07,11.17 -5.55,9.99 -15.87,19.48 -23.76,28.97 -3.05,3.67 -1.03,4.67 1.62,4.26 l 32.37,-5.09 c 0,0 1.96,-0.22 2.48,-2.53 1.76,-7.76 0.21,-20.99 10.76,-30.41 -2.48,-3.12 -4.54,-3.04 -8.02,-7.04 -8.44,-9.71 -10.27,-15.9 -7.31,-25.89 1.34,-4.54 4.39,-5.86 4.78,-7.46 0.13,-0.54 -0.38,-1 -0.93,-0.91 -5.28,0.91 -7.33,-4.35 -6.6,-6.57 0.52,-3.26 1.16,-5.97 3.96,-10.69 0.62,-1.05 0.14,-1.74 -1.06,-1.85 -1.83,-0.19 -3.24,0.2 -4.32,0.59 -1.87,0.67 -2.74,1.34 -3.05,-0.97 -0.41,-3.13 1.3,-6.52 4.32,-11.45 0.94,-1.54 -4.25,-2.31 -5.19,-2.37 -1.99,-0.13 -4.14,-2.28 -4.14,-3.26 0.04,-3.51 2.37,-3.89 1.35,-5.14 -1.65,-2.02 -13.04,-6.85 -24.89,-21.93 -2.73,-4.78 -3.62,-10.93 -5.83,-16.22 -8.62,-21.83 -15.36,-43.74 -30.73,-62.45 -3.67,-4.35 -4.91,-5 -9.82,-8.74 -1.6,-1.23 -1.03,-2.54 3.07,-7.24 6.52,-7.47 12.52,-13.69 11.64,-30.76 -1.03,-20.13 -18.39,-33.88 -33.86,-33.88 -18.23,0 -29.79,9.38 -34.4,17.63" />
			</defs>
			<clipPath
   id="SVGID_5_">
				<use
   xlink:href="#SVGID_4_"
   overflow="visible"
   id="use6" />
			</clipPath>
			
				<radialGradient
   id="SVGID_6_"
   cx="-14.8653"
   cy="235.51109"
   r="2.3141"
   gradientTransform="matrix(-57.2328,140.8379,-140.8379,-57.2328,32611.49,15573.264)"
   gradientUnits="userSpaceOnUse">
				<stop
   offset="0"
   style="stop-color:#0DB4E6"
   id="stop6" />
				<stop
   offset="0.1508"
   style="stop-color:#0DB3E6"
   id="stop7" />
				<stop
   offset="0.4617"
   style="stop-color:#0892C1"
   id="stop8" />
				<stop
   offset="0.6461"
   style="stop-color:#007BA9"
   id="stop9" />
				<stop
   offset="0.7561"
   style="stop-color:#037EA2"
   id="stop10" />
				<stop
   offset="0.9131"
   style="stop-color:#01828F"
   id="stop11" />
				<stop
   offset="1"
   style="stop-color:#008582"
   id="stop12" />
			</radialGradient>
			<polygon
   clip-path="url(#SVGID_5_)"
   fill="url(#SVGID_6_)"
   points="96.736,-85.8 587.206,113.51 407.926,554.68 -82.544,355.37 "
   id="polygon12"
   style="fill:url(#SVGID_6_)" />
		</g>
		<g
   id="g19">
			<defs
   id="defs12">
				<path
   id="SVGID_7_"
   d="m 77.036,43.97 c 0,-4.35 3.07,-7.45 6.77,-7.45 4.29,0 7.38,3.11 7.38,7.45 0,4.36 -3.08,7.49 -7.38,7.49 -3.7,0 -6.77,-3.12 -6.77,-7.49 M 35.116,3.63 c 1.48,11.65 2.85,18.41 3.85,25.5 0.23,1.62 -0.08,2.49 -1.22,2.49 -6.77,0 -13.23,4.86 -17.21,11.83 -5.59,9.8 -10.69,18.72 -19.9,23.24 -0.53,0.26 -0.8,0.93 -0.53,1.46 1.95,3.77 5.35,5.95 8.75,7.1 3.78,1.27 5.54,0.43 8.39,1.84 0.45,0.22 0.68,0.78 0.55,1.26 -0.21,0.74 -0.67,1.33 -1.12,2.22 -7.7,13.84 1.19,31.46 -11.96,42.27 -0.65,0.54 -0.43,1.7 0.4,1.84 7.81,1.34 12.85,-0.88 16.17,-3.1 3.19,-2.13 4.78,-4.26 5.69,-3.24 -4.59,13.94 -2.35,15.86 -5.24,33.63 -0.64,3.96 -3.48,9.11 -0.97,8.38 19.88,-5.81 23.49,-13.83 24.93,-15.27 1.64,-1.65 2.04,-5.45 6.5,1.94 0.97,1.61 2.42,3.6 3.13,3.24 0.54,0.08 1.36,-1.25 1.67,-1.71 3.85,-5.58 8.66,-8.61 14.11,-11.09 0.26,-0.12 0.52,-0.27 0.8,-0.24 6.87,0.68 12.68,3.03 20.62,6.3 0.57,0.24 1.26,-0.04 1.44,-0.64 3.48,-11.42 -2.17,-21.73 -1.97,-23.23 0.2,-1.49 0.95,-0.75 3.77,2.07 6.11,6.11 15.62,6.55 21.21,5.09 3,-0.78 6.96,-2.78 8.24,-4.8 0.45,-0.71 -0.01,-1.59 -0.83,-1.7 -16.96,-2.44 -17.86,-19.81 -24.92,-31.49 -0.39,-0.65 -0.75,-1.7 -0.48,-1.89 l 5.35,2.72 c 0.09,0.05 23.71,5.06 24.74,5.22 2.37,0.38 3.5,-2.3 3.5,-2.3 0.19,-0.71 1.69,-6.45 1.55,-11.52 -0.06,-2.29 -2.57,-3.7 -3.71,-2.55 -0.45,0.46 -0.88,0.94 -1.34,1.28 -0.59,0.44 -1.38,0.51 -2.08,0.32 -6.08,-1.64 -8.14,-2.24 -14.7,-4.93 l -8.52,-13.64 c -0.57,-1.74 0.83,-2.43 1.38,-2.9 6.69,-5.72 12.58,-9.83 35.83,-21.78 2.21,-1.14 -2.2,-15.6 -4.42,-25.15 -0.74,-3.33 -3.46,-4.22 -4.72,-3.89 -29.74,7.7 -56.16,21.68 -62.08,15.66 -0.05,-0.05 -0.05,-0.04 -0.05,-0.04 0,0 0,0 -0.05,-0.03 L 39.756,0.8 C 39.026,0.25 38.296,0 37.626,0 c -1.59,-0.01 -2.79,1.44 -2.51,3.63" />
			</defs>
			<clipPath
   id="SVGID_8_">
				<use
   xlink:href="#SVGID_7_"
   overflow="visible"
   id="use12" />
			</clipPath>
			
				<radialGradient
   id="SVGID_9_"
   cx="-14.7574"
   cy="235.66521"
   r="2.3141"
   gradientTransform="matrix(-57.2328,140.8379,-140.8379,-57.2328,32590.264,15578.107)"
   gradientUnits="userSpaceOnUse">
				<stop
   offset="0"
   style="stop-color:#0DB4E6"
   id="stop13" />
				<stop
   offset="0.1508"
   style="stop-color:#0DB3E6"
   id="stop14" />
				<stop
   offset="0.4617"
   style="stop-color:#0892C1"
   id="stop15" />
				<stop
   offset="0.6461"
   style="stop-color:#007BA9"
   id="stop16" />
				<stop
   offset="0.7561"
   style="stop-color:#037EA2"
   id="stop17" />
				<stop
   offset="0.9131"
   style="stop-color:#01828F"
   id="stop18" />
				<stop
   offset="1"
   style="stop-color:#008582"
   id="stop19" />
			</radialGradient>
			<polygon
   clip-path="url(#SVGID_8_)"
   fill="url(#SVGID_9_)"
   points="20.156,-50.02 199.406,22.83 122.896,211.09 -56.354,138.25 "
   id="polygon19"
   style="fill:url(#SVGID_9_)" />
		</g>
		<g
   id="g27">
			<defs
   id="defs19">
				<path
   id="SVGID_10_"
   d="m 185.746,75.09 c 11.42,14.62 46.67,20.82 55.02,20.58 0,0 0.11,-0.65 -0.62,-1.3 -1.19,-1.05 -1.93,-1.72 -3.37,-1.71 -4.32,0.59 -31.39,-5.72 -41.06,-16.22 -13.31,-14.46 14.08,-41.8 98.9,-55.51 20.37,-3.29 43.26,-5.69 66.81,-5.93 6.21,-0.06 6.87,-9.08 0.74,-10.07 -14.5,-2.36 -29.41,-3.83 -37.56,-3.91 -2.08,-0.02 -4.14,-0.03 -6.16,-0.03 -143.78,-0.02 -147.74,54.84 -132.7,74.1" />
			</defs>
			<clipPath
   id="SVGID_11_">
				<use
   xlink:href="#SVGID_10_"
   overflow="visible"
   id="use19" />
			</clipPath>
			
				<radialGradient
   id="SVGID_12_"
   cx="-14.0246"
   cy="235.7507"
   r="2.3141"
   gradientTransform="matrix(-57.7554,99.3391,-99.3391,-57.7554,22874.506,15033.642)"
   gradientUnits="userSpaceOnUse">
				<stop
   offset="0"
   style="stop-color:#0DB4E6"
   id="stop20" />
				<stop
   offset="0.0969"
   style="stop-color:#0CADDF"
   id="stop21" />
				<stop
   offset="0.2355"
   style="stop-color:#099CCC"
   id="stop22" />
				<stop
   offset="0.3986"
   style="stop-color:#0580AE"
   id="stop23" />
				<stop
   offset="0.42"
   style="stop-color:#007BA9"
   id="stop24" />
				<stop
   offset="0.5986"
   style="stop-color:#037EA2"
   id="stop25" />
				<stop
   offset="0.8576"
   style="stop-color:#01828F"
   id="stop26" />
				<stop
   offset="1"
   style="stop-color:#008582"
   id="stop27" />
			</radialGradient>
			<polygon
   clip-path="url(#SVGID_11_)"
   fill="url(#SVGID_12_)"
   points="220.626,-84.89 409.556,24.95 318.386,181.77 129.456,71.92 "
   id="polygon27"
   style="fill:url(#SVGID_12_)" />
		</g>
	</g>
</g>
</svg>
