<?xml version="1.0" encoding="UTF-8"?>
<svg xmlns="http://www.w3.org/2000/svg" xmlns:xlink="http://www.w3.org/1999/xlink" width="64px" height="31px" viewBox="0 0 64 31" version="1.1">
<defs>
<linearGradient id="linear0" gradientUnits="userSpaceOnUse" x1="828.200012" y1="299.799988" x2="1242.5" y2="749.900024" gradientTransform="matrix(0.0401153,0,0,0.0401153,-0.0146512,-0.0126599)">
<stop offset="0" style="stop-color:rgb(0.392157%,52.54902%,96.078431%);stop-opacity:1;"/>
<stop offset="0.1" style="stop-color:rgb(0.392157%,52.54902%,96.078431%);stop-opacity:1;"/>
<stop offset="0.3" style="stop-color:rgb(20.784314%,76.078431%,69.019608%);stop-opacity:1;"/>
<stop offset="0.7" style="stop-color:rgb(66.666667%,84.705882%,14.509804%);stop-opacity:1;"/>
<stop offset="1" style="stop-color:rgb(99.607843%,84.313725%,0%);stop-opacity:1;"/>
</linearGradient>
<linearGradient id="linear1" gradientUnits="userSpaceOnUse" x1="493.700012" y1="714.200012" x2="497.100006" y2="431.700012" gradientTransform="matrix(0.0401153,0,0,0.0401153,-0.0146512,-0.0126599)">
<stop offset="0" style="stop-color:rgb(100%,49.803922%,0%);stop-opacity:1;"/>
<stop offset="1" style="stop-color:rgb(99.607843%,0.784314%,0.392157%);stop-opacity:1;"/>
</linearGradient>
<linearGradient id="linear2" gradientUnits="userSpaceOnUse" x1="911.200012" y1="125.099998" x2="1368.800049" y2="133.899994" gradientTransform="matrix(0.0401153,0,0,0.0401153,-0.0146512,-0.0126599)">
<stop offset="0" style="stop-color:rgb(0.392157%,52.54902%,96.078431%);stop-opacity:1;"/>
<stop offset="0.2" style="stop-color:rgb(0.392157%,52.54902%,96.078431%);stop-opacity:1;"/>
<stop offset="1" style="stop-color:rgb(19.215686%,33.72549%,99.215686%);stop-opacity:1;"/>
</linearGradient>
<linearGradient id="linear3" gradientUnits="userSpaceOnUse" x1="1438.800049" y1="359" x2="1481" y2="275.799988" gradientTransform="matrix(0.0401153,0,0,0.0401153,-0.0146512,-0.0126599)">
<stop offset="0" style="stop-color:rgb(51.764706%,20.392157%,83.529412%);stop-opacity:1;"/>
<stop offset="0.9" style="stop-color:rgb(19.215686%,33.72549%,99.215686%);stop-opacity:1;"/>
<stop offset="1" style="stop-color:rgb(19.215686%,33.72549%,99.215686%);stop-opacity:1;"/>
</linearGradient>
<linearGradient id="linear4" gradientUnits="userSpaceOnUse" x1="1346" y1="379" x2="994.599976" y2="395.600006" gradientTransform="matrix(0.0401153,0,0,0.0401153,-0.0146512,-0.0126599)">
<stop offset="0" style="stop-color:rgb(51.764706%,20.392157%,83.529412%);stop-opacity:1;"/>
<stop offset="1" style="stop-color:rgb(99.607843%,0.784314%,0.392157%);stop-opacity:1;"/>
</linearGradient>
</defs>
<g id="surface1">
<path style=" stroke:none;fill-rule:nonzero;fill:url(#linear0);" d="M 39.75 9.835938 C 39.078125 10.265625 35.601562 12.59375 37.207031 18.890625 C 37.769531 21.085938 39.40625 22.683594 41.832031 23.730469 C 45.675781 25.390625 48.875 25.277344 51.800781 24.625 C 56.015625 23.691406 56.152344 23.0625 57.5625 23.886719 C 59.011719 24.734375 58.90625 26.664062 58.234375 27.660156 C 57.609375 28.582031 54.753906 29.570312 52.917969 30.042969 C 47.707031 31.390625 41.957031 31.253906 37.390625 29.238281 C 34.1875 27.832031 31.496094 25.894531 30.171875 22.0625 C 29.199219 19.246094 27.933594 14.914062 30.210938 10.195312 C 31.320312 7.902344 33.226562 5.804688 35.214844 4.21875 Z M 39.75 9.835938 "/>
<path style=" stroke:none;fill-rule:nonzero;fill:url(#linear1);" d="M 39.492188 19.109375 C 38.214844 19.003906 22.550781 17.339844 22.550781 17.339844 C 22.550781 17.339844 23.871094 24.128906 24.449219 26.640625 C 25.464844 31.039062 20.003906 31.367188 19.332031 29.300781 C 17.621094 24.03125 16.109375 19.777344 15.535156 18.648438 C 13.660156 14.941406 5.9375 15.765625 3.132812 14.984375 C -1.820312 13.601562 -0.785156 5.542969 5.417969 5.976562 C 8.644531 6.203125 18.742188 8.320312 27.335938 9.839844 C 32.886719 10.828125 38.191406 11.386719 40.003906 11.628906 Z M 39.492188 19.109375 "/>
<path style=" stroke:none;fill-rule:nonzero;fill:url(#linear2);" d="M 39.726562 9.871094 L 35.183594 4.238281 C 38.980469 1.214844 43.746094 0.21875 48.277344 0.0273438 C 53.019531 -0.171875 56.175781 0.753906 58.425781 1.886719 C 61.390625 3.382812 64.035156 5.976562 63.953125 10.800781 L 55.261719 9.085938 C 53.699219 8.046875 50.238281 7.53125 48.253906 7.480469 C 44.5625 7.382812 41.871094 8.515625 39.726562 9.871094 Z M 39.726562 9.871094 "/>
<path style=" stroke:none;fill-rule:nonzero;fill:url(#linear3);" d="M 63.953125 10.710938 C 63.890625 14.4375 61.609375 17.484375 56.441406 18.871094 L 54.167969 11.84375 C 57.039062 11.371094 56.722656 10.339844 55.777344 9.476562 C 55.582031 9.289062 55.121094 8.996094 55.121094 8.996094 Z M 63.953125 10.710938 "/>
<path style=" stroke:none;fill-rule:nonzero;fill:url(#linear4);" d="M 56.523438 18.84375 C 54.394531 19.414062 50.507812 20.066406 39.449219 19.109375 L 39.964844 11.628906 C 46.769531 12.53125 51.707031 12.257812 54.253906 11.835938 Z M 56.523438 18.84375 "/>
</g>
</svg>
